<mxfile host="app.diagrams.net" modified="2024-02-15T16:25:52.396Z" agent="Mozilla/5.0 (Windows NT 10.0; Win64; x64) AppleWebKit/537.36 (KHTML, like Gecko) Chrome/121.0.0.0 Safari/537.36" etag="X0oPDtAUJWQiliTZ1sw8" version="23.1.1" type="github">
  <diagram name="第 1 页" id="QUxGIifQUmA1StA2rJvh">
    <mxGraphModel dx="1295" dy="573" grid="1" gridSize="10" guides="1" tooltips="1" connect="1" arrows="1" fold="1" page="1" pageScale="1" pageWidth="827" pageHeight="1169" math="0" shadow="0">
      <root>
        <mxCell id="0" />
        <mxCell id="1" parent="0" />
        <mxCell id="IkZ6kC4b8WAhOYYU804M-1" value="Main Question&lt;br&gt;&lt;br&gt;How to develop the career move recommendation&amp;nbsp; based on&amp;nbsp;artificial intelligence in job portal?&amp;nbsp;&lt;br&gt;1.what is the relationship between artifial intelligence and Job recommedantion system?&lt;br&gt;&lt;br&gt;2.How to help job seekers to achieve career move in job portal using AI?&lt;br&gt;&lt;br&gt;3.How to evaluate the development of the framework?" style="rounded=0;whiteSpace=wrap;html=1;align=left;" vertex="1" parent="1">
          <mxGeometry x="190" y="50" width="490" height="140" as="geometry" />
        </mxCell>
        <mxCell id="IkZ6kC4b8WAhOYYU804M-2" value="Research&lt;br&gt;Questions" style="text;html=1;align=center;verticalAlign=middle;resizable=0;points=[];autosize=1;strokeColor=none;fillColor=none;" vertex="1" parent="1">
          <mxGeometry x="90" y="80" width="80" height="40" as="geometry" />
        </mxCell>
      </root>
    </mxGraphModel>
  </diagram>
</mxfile>
